<svg fill="#FFFFFF" height="512" viewBox="0 0 64 64" width="512" xmlns="http://www.w3.org/2000/svg"><g id="outline"><path d="m48 5a3 3 0 0 0 -3-3h-26a3 3 0 0 0 -3 3v11.735l-3.868 6.765a1 1 0 0 0 .868 1.5 4.1 4.1 0 0 1 2.519.773l-1.519 28.173a1.013 1.013 0 0 0 .029.3l1 4a1.138 1.138 0 0 0 .041.129c.964 2.404 2.622 3.625 4.93 3.625h24c2.308 0 3.966-1.221 4.929-3.629a1.138 1.138 0 0 0 .041-.129l1-4a1.013 1.013 0 0 0 .029-.3l-1.518-28.17a4.1 4.1 0 0 1 2.519-.772 1 1 0 0 0 .868-1.5l-3.868-6.765zm-30 0a1 1 0 0 1 1-1h26a1 1 0 0 1 1 1v7h-28zm14 16.851c.3.836.66 1.86 1.055 3.038a4.792 4.792 0 0 1 -1.065.111 4.649 4.649 0 0 1 -1.046-.109c.395-1.178.756-2.203 1.056-3.04zm-4.533 7.4-4.206-3.505a23.144 23.144 0 0 1 7.033-7.746h.706v.811c-.347.889-1.9 4.951-3.533 10.443zm3.533-13.251v-2h2v2zm2 2.811v-.811h.706a23.144 23.144 0 0 1 7.033 7.749l-4.206 3.505c-1.633-5.492-3.186-9.554-3.533-10.443zm2-2.811v-2h11v2zm-17-2h11v2h-11zm-3.382 9.183 2.962-5.183h9.437a25.166 25.166 0 0 0 -5.2 6.249 4.067 4.067 0 0 1 -2.487.751 4.193 4.193 0 0 1 -2.625-.844 6.692 6.692 0 0 0 -2.087-.973zm32.429 34.506c-.663 1.62-1.577 2.311-3.047 2.311h-24c-1.47 0-2.384-.691-3.047-2.311l-.946-3.789 1.464-27.157a6.913 6.913 0 0 0 3.838-.036c.019.018.03.041.05.059l6 5a1.009 1.009 0 0 0 .641.234 1.029 1.029 0 0 0 .3-.044 1 1 0 0 0 .667-.682c.461-1.612.922-3.116 1.36-4.482a6.494 6.494 0 0 0 1.663.208 6.618 6.618 0 0 0 1.688-.209c.438 1.366.9 2.87 1.36 4.483a1 1 0 0 0 .667.682 1.029 1.029 0 0 0 .295.044 1.009 1.009 0 0 0 .641-.231l6-5c.019-.017.03-.039.048-.057a6.318 6.318 0 0 0 1.971.288 6.432 6.432 0 0 0 1.869-.255l1.464 27.155zm2.335-34.506a6.712 6.712 0 0 0 -2.085.971 4.215 4.215 0 0 1 -2.637.846 4.049 4.049 0 0 1 -2.47-.742 25.141 25.141 0 0 0 -5.207-6.258h9.437z"/><path d="m24 6h2v2h-2z"/><path d="m20 6h2v2h-2z"/><path d="m34 52a8 8 0 1 0 -8 8 8.009 8.009 0 0 0 8-8zm-8 6a6 6 0 1 1 6-6 6.006 6.006 0 0 1 -6 6z"/><path d="m40 39a7 7 0 1 0 7 7 7.009 7.009 0 0 0 -7-7zm0 12a5 5 0 1 1 5-5 5.006 5.006 0 0 1 -5 5z"/><path d="m23 32a6 6 0 1 0 6 6 6.006 6.006 0 0 0 -6-6zm0 10a4 4 0 1 1 4-4 4 4 0 0 1 -4 4z"/><path d="m20 36h2v2h-2z"/><path d="m22 38h2v2h-2z"/><path d="m25 48h2v2h-2z"/><path d="m22 51h2v2h-2z"/><path d="m24 53h2v2h-2z"/><path d="m37 43h2v2h-2z"/><path d="m39 47h2v2h-2z"/><path d="m41 45h2v2h-2z"/><path d="m43.219 56h-3.219v2h4a1 1 0 0 0 .97-.758l1-4-1.94-.484z"/><path d="m36 56h2v2h-2z"/></g></svg>